<?xml version="1.0" encoding="UTF-8"?>
<svg id="Calque_1" data-name="Calque 1" xmlns="http://www.w3.org/2000/svg" xmlns:xlink="http://www.w3.org/1999/xlink" viewBox="0 0 800 800">
  <defs>
    <style>
      .cls-1 {
        fill: url(#Dégradé_sans_nom_73);
        stroke-width: 0px;
      }
    </style>
    <linearGradient id="Dégradé_sans_nom_73" data-name="Dégradé sans nom 73" x1="0" y1="400" x2="800" y2="400" gradientUnits="userSpaceOnUse">
      <stop offset="0" stop-color="red"/>
      <stop offset=".12" stop-color="#ffa42a"/>
      <stop offset=".27" stop-color="#ff0"/>
      <stop offset=".41" stop-color="lime"/>
      <stop offset=".53" stop-color="aqua"/>
      <stop offset=".69" stop-color="blue"/>
      <stop offset=".69" stop-color="#0900ff"/>
      <stop offset=".7" stop-color="#3700ff"/>
      <stop offset=".7" stop-color="#6200ff"/>
      <stop offset=".71" stop-color="#8700ff"/>
      <stop offset=".72" stop-color="#a800ff"/>
      <stop offset=".72" stop-color="#c300ff"/>
      <stop offset=".73" stop-color="#d900ff"/>
      <stop offset=".74" stop-color="#ea00ff"/>
      <stop offset=".76" stop-color="#f600ff"/>
      <stop offset=".77" stop-color="#fd00ff"/>
      <stop offset=".82" stop-color="#f0f"/>
      <stop offset="1" stop-color="red"/>
    </linearGradient>
  </defs>
  <path class="cls-1" d="M400,24c50.77,0,100.01,9.94,146.35,29.54,44.77,18.94,84.98,46.05,119.52,80.59,34.54,34.54,61.65,74.75,80.59,119.52,19.6,46.34,29.54,95.58,29.54,146.35s-9.94,100.01-29.54,146.35c-18.94,44.77-46.05,84.98-80.59,119.52-34.54,34.54-74.75,61.65-119.52,80.59-46.34,19.6-95.58,29.54-146.35,29.54s-100.01-9.94-146.35-29.54c-44.77-18.94-84.98-46.05-119.52-80.59-34.54-34.54-61.65-74.75-80.59-119.52-19.6-46.34-29.54-95.58-29.54-146.35s9.94-100.01,29.54-146.35c18.94-44.77,46.05-84.98,80.59-119.52,34.54-34.54,74.75-61.65,119.52-80.59,46.34-19.6,95.58-29.54,146.35-29.54M400,0C179.09,0,0,179.09,0,400s179.09,400,400,400,400-179.09,400-400S620.91,0,400,0h0Z"/>
</svg>